<svg width="480" height="320" viewBox="0 0 480 320" xmlns="http://www.w3.org/2000/svg" role="img" aria-label="Ilustrasi anak perempuan berhijab sedang belajar">
  <defs>
    <linearGradient id="bg" x1="0" y1="0" x2="0" y2="1">
      <stop offset="0%" stop-color="#E9F9DC"/>
      <stop offset="100%" stop-color="#F7FFF0"/>
    </linearGradient>
    <filter id="shadow" x="-20%" y="-20%" width="140%" height="140%">
      <feDropShadow dx="0" dy="2" stdDeviation="2" flood-color="#9ED27A" flood-opacity="0.4"/>
    </filter>
  </defs>
  <rect width="100%" height="100%" fill="url(#bg)" rx="16"/>

  <!-- Meja -->
  <rect x="40" y="220" width="400" height="40" rx="10" fill="#DDE6D1"/>

  <!-- Buku -->
  <rect x="95" y="200" width="110" height="16" rx="4" fill="#FFD166"/>
  <rect x="100" y="192" width="120" height="12" rx="4" fill="#FFF3CC"/>

  <!-- Laptop -->
  <rect x="250" y="188" width="120" height="16" rx="4" fill="#C8E6C9"/>
  <rect x="260" y="150" width="100" height="40" rx="6" fill="#FFFFFF" stroke="#9CCC65"/>

  <!-- Karakter: tubuh sederhana -->
  <g filter="url(#shadow)">
    <!-- kerudung -->
    <path d="M180 100 C 160 110, 150 140, 150 165 C 150 195, 220 210, 240 210 C 260 210, 320 195, 320 165 C 320 140, 310 110, 290 100 C 270 92, 210 92, 180 100 Z" fill="#79E61F"/>
    <!-- wajah -->
    <ellipse cx="235" cy="140" rx="36" ry="30" fill="#F9D6B8"/>
    <!-- senyum & mata -->
    <circle cx="222" cy="137" r="3" fill="#333"/>
    <circle cx="248" cy="137" r="3" fill="#333"/>
    <path d="M222 150 Q235 160 248 150" stroke="#D47B6B" stroke-width="3" fill="none" stroke-linecap="round"/>
    <!-- badan -->
    <rect x="205" y="165" width="60" height="40" rx="10" fill="#58CC02"/>
    <!-- tangan -->
    <rect x="190" y="175" width="20" height="12" rx="6" fill="#F9D6B8"/>
    <rect x="265" y="175" width="20" height="12" rx="6" fill="#F9D6B8"/>
  </g>

  <!-- Dekor bintang -->
  <g fill="#FFD166">
    <path d="M60 60 l6 12 13 2 -9 9 2 13 -12 -6 -12 6 2 -13 -9 -9 13 -2z"/>
    <path d="M410 70 l5 10 11 2 -7 7 2 11 -10 -5 -10 5 2 -11 -7 -7 11 -2z"/>
  </g>
</svg>


